<?xml version="1.0" encoding="UTF-8"?>
<!DOCTYPE svg PUBLIC "-//W3C//DTD SVG 1.1//EN" "http://www.w3.org/Graphics/SVG/1.1/DTD/svg11.dtd">
<svg xmlns="http://www.w3.org/2000/svg" version="1.1" width="36px" height="32px" style="shape-rendering:geometricPrecision; text-rendering:geometricPrecision; image-rendering:optimizeQuality; fill-rule:evenodd; clip-rule:evenodd" xmlns:xlink="http://www.w3.org/1999/xlink">
<g><path style="opacity:0.004" fill="#000000" d="M 23.5,1.5 C 24.8333,2.16667 24.8333,2.16667 23.5,1.5 Z"/></g>
<g><path style="opacity:0.004" fill="#00fffe" d="M 13.5,2.5 C 14.8333,3.16667 14.8333,3.16667 13.5,2.5 Z"/></g>
<g><path style="opacity:0.004" fill="#000000" d="M 21.5,2.5 C 22.8333,3.16667 22.8333,3.16667 21.5,2.5 Z"/></g>
<g><path style="opacity:0.004" fill="#000000" d="M 8.5,5.5 C 7.76109,5.63101 7.09442,5.46434 6.5,5C 7.43677,4.30831 8.10343,4.47498 8.5,5.5 Z"/></g>
<g><path style="opacity:0.333" fill="#283f3d" d="M 13.5,5.5 C 14.1667,4.16667 14.8333,4.16667 15.5,5.5C 15.5,6.16667 15.5,6.83333 15.5,7.5C 14.8333,6.83333 14.1667,6.16667 13.5,5.5 Z"/></g>
<g><path style="opacity:0.31" fill="#4b352a" d="M 26.5,6.5 C 26.1667,6.5 25.8333,6.5 25.5,6.5C 24.8333,6.5 24.5,6.83333 24.5,7.5C 24.1667,7.5 23.8333,7.5 23.5,7.5C 23.5,6.83333 23.5,6.16667 23.5,5.5C 23.3691,4.62356 23.7025,3.95689 24.5,3.5C 26.8714,3.89157 27.5381,4.89157 26.5,6.5 Z"/></g>
<g><path style="opacity:0.765" fill="#194447" d="M 13.5,5.5 C 12.8902,6.39105 12.5569,7.39105 12.5,8.5C 12.1667,8.5 11.8333,8.5 11.5,8.5C 11.5,7.5 11.5,6.5 11.5,5.5C 11.9377,4.49367 12.6043,4.49367 13.5,5.5 Z"/></g>
<g><path style="opacity:0.871" fill="#884746" d="M 22.5,5.5 C 22.5,5.83333 22.5,6.16667 22.5,6.5C 21.8333,6.5 21.1667,6.5 20.5,6.5C 21.0059,4.89461 21.6726,4.56127 22.5,5.5 Z"/></g>
<g><path style="opacity:1" fill="#165866" d="M 8.5,6.5 C 8.5,6.16667 8.5,5.83333 8.5,5.5C 9.5,5.5 10.5,5.5 11.5,5.5C 11.5,6.5 11.5,7.5 11.5,8.5C 11.1667,8.5 10.8333,8.5 10.5,8.5C 9.83333,8.5 9.5,8.83333 9.5,9.5C 9.5,9.83333 9.5,10.1667 9.5,10.5C 8.66175,10.1583 8.32842,9.49162 8.5,8.5C 8.5,8.16667 8.5,7.83333 8.5,7.5C 9.83333,7.16667 9.83333,6.83333 8.5,6.5 Z"/></g>
<g><path style="opacity:0.635" fill="#116664" d="M 13.5,5.5 C 14.1667,6.16667 14.8333,6.83333 15.5,7.5C 15.5,7.83333 15.5,8.16667 15.5,8.5C 14.5084,8.32842 13.8417,8.66175 13.5,9.5C 12.8333,9.5 12.5,9.16667 12.5,8.5C 12.5569,7.39105 12.8902,6.39105 13.5,5.5 Z"/></g>
<g><path style="opacity:0.976" fill="#126f60" d="M 15.5,5.5 C 15.8333,5.5 16.1667,5.5 16.5,5.5C 16.3284,6.49162 16.6618,7.15829 17.5,7.5C 17.5,7.83333 17.5,8.16667 17.5,8.5C 16.8333,8.5 16.1667,8.5 15.5,8.5C 15.5,8.16667 15.5,7.83333 15.5,7.5C 15.5,6.83333 15.5,6.16667 15.5,5.5 Z"/></g>
<g><path style="opacity:0.925" fill="#244036" d="M 16.5,5.5 C 17.1667,5.83333 17.8333,6.16667 18.5,6.5C 18.5,7.16667 18.1667,7.5 17.5,7.5C 16.6618,7.15829 16.3284,6.49162 16.5,5.5 Z"/></g>
<g><path style="opacity:0.235" fill="#383030" d="M 25.5,7.5 C 25.5,7.16667 25.5,6.83333 25.5,6.5C 25.8333,6.5 26.1667,6.5 26.5,6.5C 29.925,6.36682 30.2583,7.03349 27.5,8.5C 27.5,8.83333 27.5,9.16667 27.5,9.5C 27.1667,9.5 26.8333,9.5 26.5,9.5C 26.6716,8.50838 26.3382,7.84171 25.5,7.5 Z"/></g>
<g><path style="opacity:0.235" fill="#201e17" d="M 8.5,6.5 C 9.83333,6.83333 9.83333,7.16667 8.5,7.5C 7.22235,7.78219 6.22235,8.44886 5.5,9.5C 5.5,8.5 5.5,7.5 5.5,6.5C 6.5,6.5 7.5,6.5 8.5,6.5 Z"/></g>
<g><path style="opacity:0.998" fill="#d1701b" d="M 20.5,6.5 C 21.1667,6.5 21.8333,6.5 22.5,6.5C 22.4326,7.95875 22.7659,9.29208 23.5,10.5C 22.391,10.4431 21.391,10.1098 20.5,9.5C 20.5,8.5 20.5,7.5 20.5,6.5 Z"/></g>
<g><path style="opacity:0.006" fill="#102228" d="M 5.5,9.5 C 5.5,9.83333 5.5,10.1667 5.5,10.5C 3.77484,10.1575 3.27484,9.15746 4,7.5C 4.27842,8.4158 4.77842,9.08247 5.5,9.5 Z"/></g>
<g><path style="opacity:0.902" fill="#1b5376" d="M 8.5,7.5 C 8.5,7.83333 8.5,8.16667 8.5,8.5C 7.66175,8.84171 7.32842,9.50838 7.5,10.5C 7.16667,10.5 6.83333,10.5 6.5,10.5C 6.16667,10.5 5.83333,10.5 5.5,10.5C 5.5,10.1667 5.5,9.83333 5.5,9.5C 6.22235,8.44886 7.22235,7.78219 8.5,7.5 Z"/></g>
<g><path style="opacity:0.494" fill="#574132" d="M 10.5,9.5 C 10.5,9.16667 10.5,8.83333 10.5,8.5C 10.8333,8.5 11.1667,8.5 11.5,8.5C 11.8333,8.5 12.1667,8.5 12.5,8.5C 12.5,9.16667 12.8333,9.5 13.5,9.5C 13.5,10.1667 13.1667,10.5 12.5,10.5C 11.8333,10.1667 11.1667,9.83333 10.5,9.5 Z"/></g>
<g><path style="opacity:0.173" fill="#3a7357" d="M 19.5,6.5 C 19.7148,8.17876 19.0481,9.17876 17.5,9.5C 17.5,9.16667 17.5,8.83333 17.5,8.5C 17.5,8.16667 17.5,7.83333 17.5,7.5C 18.1667,7.5 18.5,7.16667 18.5,6.5C 18.8333,5.16667 19.1667,5.16667 19.5,6.5 Z"/></g>
<g><path style="opacity:0.675" fill="#614728" d="M 22.5,5.5 C 22.8333,5.5 23.1667,5.5 23.5,5.5C 23.5,6.16667 23.5,6.83333 23.5,7.5C 23.5,8.16667 23.8333,8.5 24.5,8.5C 24.5,8.83333 24.5,9.16667 24.5,9.5C 24.5,10.1667 24.1667,10.5 23.5,10.5C 22.7659,9.29208 22.4326,7.95875 22.5,6.5C 22.5,6.16667 22.5,5.83333 22.5,5.5 Z"/></g>
<g><path style="opacity:0.988" fill="#a75122" d="M 24.5,7.5 C 24.8333,7.5 25.1667,7.5 25.5,7.5C 26.3382,7.84171 26.6716,8.50838 26.5,9.5C 25.8333,9.5 25.1667,9.5 24.5,9.5C 24.5,9.16667 24.5,8.83333 24.5,8.5C 24.5,8.16667 24.5,7.83333 24.5,7.5 Z"/></g>
<g><path style="opacity:0.196" fill="#382e23" d="M 27.5,9.5 C 27.5,9.16667 27.5,8.83333 27.5,8.5C 29.099,8.23219 30.4324,8.56552 31.5,9.5C 28.8333,9.83333 28.8333,10.1667 31.5,10.5C 31.5,10.8333 31.5,11.1667 31.5,11.5C 30.1667,11.5 28.8333,11.5 27.5,11.5C 27.5,11.1667 27.5,10.8333 27.5,10.5C 28.8333,10.1667 28.8333,9.83333 27.5,9.5 Z"/></g>
<g><path style="opacity:1" fill="#147965" d="M 14.5,9.5 C 16.9327,9.7856 16.9327,10.4523 14.5,11.5C 14.5,10.8333 14.5,10.1667 14.5,9.5 Z"/></g>
<g><path style="opacity:1" fill="#8e5b27" d="M 19.5,6.5 C 19.8333,6.5 20.1667,6.5 20.5,6.5C 20.5,7.5 20.5,8.5 20.5,9.5C 20.5,9.83333 20.5,10.1667 20.5,10.5C 19.8333,10.5 19.1667,10.5 18.5,10.5C 18.1667,10.5 17.8333,10.5 17.5,10.5C 17.5,10.1667 17.5,9.83333 17.5,9.5C 19.0481,9.17876 19.7148,8.17876 19.5,6.5 Z"/></g>
<g><path style="opacity:0.929" fill="#7b4225" d="M 24.5,9.5 C 25.1667,9.5 25.8333,9.5 26.5,9.5C 26.8333,9.5 27.1667,9.5 27.5,9.5C 28.8333,9.83333 28.8333,10.1667 27.5,10.5C 26.5,10.8333 25.8333,11.5 25.5,12.5C 25.1667,12.5 24.8333,12.5 24.5,12.5C 24.1667,11.8333 23.8333,11.1667 23.5,10.5C 24.1667,10.5 24.5,10.1667 24.5,9.5 Z"/></g>
<g><path style="opacity:0.012" fill="#545500" d="M 31.5,9.5 C 32.8333,10.1667 32.8333,10.1667 31.5,9.5 Z"/></g>
<g><path style="opacity:0.996" fill="#0e7da2" d="M 8.5,8.5 C 8.32842,9.49162 8.66175,10.1583 9.5,10.5C 9.5,11.5 9.5,12.5 9.5,13.5C 9.16667,13.5 8.83333,13.5 8.5,13.5C 8.67158,12.5084 8.33825,11.8417 7.5,11.5C 7.5,11.1667 7.5,10.8333 7.5,10.5C 7.32842,9.50838 7.66175,8.84171 8.5,8.5 Z"/></g>
<g><path style="opacity:0.404" fill="#173230" d="M 9.5,9.5 C 9.83333,9.5 10.1667,9.5 10.5,9.5C 10.3284,10.4916 10.6618,11.1583 11.5,11.5C 11.1667,12.1667 10.8333,12.8333 10.5,13.5C 10.1667,13.5 9.83333,13.5 9.5,13.5C 9.5,12.5 9.5,11.5 9.5,10.5C 9.5,10.1667 9.5,9.83333 9.5,9.5 Z"/></g>
<g><path style="opacity:0.157" fill="#13cddd" d="M 10.5,9.5 C 11.1667,9.83333 11.8333,10.1667 12.5,10.5C 12.5,10.8333 12.5,11.1667 12.5,11.5C 12.1667,11.5 11.8333,11.5 11.5,11.5C 10.6618,11.1583 10.3284,10.4916 10.5,9.5 Z"/></g>
<g><path style="opacity:0.471" fill="#145e4e" d="M 13.5,9.5 C 13.8333,9.5 14.1667,9.5 14.5,9.5C 14.5,10.1667 14.5,10.8333 14.5,11.5C 14.1667,11.5 13.8333,11.5 13.5,11.5C 13.1667,11.5 12.8333,11.5 12.5,11.5C 12.5,11.1667 12.5,10.8333 12.5,10.5C 13.1667,10.5 13.5,10.1667 13.5,9.5 Z"/></g>
<g><path style="opacity:0.663" fill="#36392d" d="M 13.5,9.5 C 13.8417,8.66175 14.5084,8.32842 15.5,8.5C 16.1667,8.5 16.8333,8.5 17.5,8.5C 17.5,8.83333 17.5,9.16667 17.5,9.5C 17.5,9.83333 17.5,10.1667 17.5,10.5C 17.1667,11.1667 16.8333,11.8333 16.5,12.5C 16.5,12.8333 16.5,13.1667 16.5,13.5C 15.609,12.8902 14.609,12.5569 13.5,12.5C 13.5,12.1667 13.5,11.8333 13.5,11.5C 13.8333,11.5 14.1667,11.5 14.5,11.5C 16.9327,10.4523 16.9327,9.7856 14.5,9.5C 14.1667,9.5 13.8333,9.5 13.5,9.5 Z"/></g>
<g><path style="opacity:1" fill="#524029" d="M 20.5,9.5 C 21.391,10.1098 22.391,10.4431 23.5,10.5C 23.8333,11.1667 24.1667,11.8333 24.5,12.5C 23.8333,12.5 23.1667,12.5 22.5,12.5C 22.1583,11.6618 21.4916,11.3284 20.5,11.5C 20.5,11.1667 20.5,10.8333 20.5,10.5C 20.5,10.1667 20.5,9.83333 20.5,9.5 Z"/></g>
<g><path style="opacity:0.537" fill="#1b3235" d="M 6.5,10.5 C 6.83333,10.5 7.16667,10.5 7.5,10.5C 7.5,10.8333 7.5,11.1667 7.5,11.5C 7.5,11.8333 7.5,12.1667 7.5,12.5C 6.5,12.5 5.5,12.5 4.5,12.5C 4.16667,12.5 3.83333,12.5 3.5,12.5C 4.5,11.8333 5.5,11.1667 6.5,10.5 Z"/></g>
<g><path style="opacity:1" fill="#ac6f1e" d="M 17.5,10.5 C 17.8333,10.5 18.1667,10.5 18.5,10.5C 18.5,11.1667 18.5,11.8333 18.5,12.5C 17.8333,12.5 17.1667,12.5 16.5,12.5C 16.8333,11.8333 17.1667,11.1667 17.5,10.5 Z"/></g>
<g><path style="opacity:0.996" fill="#674e26" d="M 18.5,10.5 C 19.1667,10.5 19.8333,10.5 20.5,10.5C 20.5,10.8333 20.5,11.1667 20.5,11.5C 20.5,11.8333 20.5,12.1667 20.5,12.5C 19.8333,12.5 19.1667,12.5 18.5,12.5C 18.5,11.8333 18.5,11.1667 18.5,10.5 Z"/></g>
<g><path style="opacity:0.667" fill="#59362a" d="M 27.5,10.5 C 27.5,10.8333 27.5,11.1667 27.5,11.5C 27.1583,12.3382 26.4916,12.6716 25.5,12.5C 25.8333,11.5 26.5,10.8333 27.5,10.5 Z"/></g>
<g><path style="opacity:1" fill="#15554d" d="M 11.5,11.5 C 11.8333,11.5 12.1667,11.5 12.5,11.5C 12.8333,11.5 13.1667,11.5 13.5,11.5C 13.5,11.8333 13.5,12.1667 13.5,12.5C 13.1667,13.1667 12.8333,13.8333 12.5,14.5C 12.1667,14.5 11.8333,14.5 11.5,14.5C 11.5,13.8333 11.1667,13.5 10.5,13.5C 10.8333,12.8333 11.1667,12.1667 11.5,11.5 Z"/></g>
<g><path style="opacity:0.996" fill="#675225" d="M 16.5,12.5 C 17.1667,12.5 17.8333,12.5 18.5,12.5C 18.5,12.8333 18.5,13.1667 18.5,13.5C 17.4937,13.9377 17.4937,14.6043 18.5,15.5C 17.8333,15.5 17.1667,15.5 16.5,15.5C 16.5,15.1667 16.5,14.8333 16.5,14.5C 16.5,14.1667 16.5,13.8333 16.5,13.5C 16.5,13.1667 16.5,12.8333 16.5,12.5 Z"/></g>
<g><path style="opacity:1" fill="#da7417" d="M 18.5,13.5 C 18.5,13.1667 18.5,12.8333 18.5,12.5C 19.1667,12.5 19.8333,12.5 20.5,12.5C 20.6716,13.4916 20.3382,14.1583 19.5,14.5C 19.5,13.8333 19.1667,13.5 18.5,13.5 Z"/></g>
<g><path style="opacity:1" fill="#c24129" d="M 27.5,11.5 C 28.8333,11.5 30.1667,11.5 31.5,11.5C 32.1667,11.5 32.5,11.8333 32.5,12.5C 32.5,13.5 32.5,14.5 32.5,15.5C 31.8333,15.5 31.1667,15.5 30.5,15.5C 30.5,15.1667 30.5,14.8333 30.5,14.5C 29.3774,13.2426 28.7107,13.5759 28.5,15.5C 27.8333,14.8333 27.1667,14.1667 26.5,13.5C 26.1667,13.5 25.8333,13.5 25.5,13.5C 25.5,13.1667 25.5,12.8333 25.5,12.5C 26.4916,12.6716 27.1583,12.3382 27.5,11.5 Z"/></g>
<g><path style="opacity:0.169" fill="#19251d" d="M 2.5,12.5 C 2.83333,12.5 3.16667,12.5 3.5,12.5C 3.32842,13.4916 3.66175,14.1583 4.5,14.5C 4.5,14.8333 4.5,15.1667 4.5,15.5C 4.16667,15.5 3.83333,15.5 3.5,15.5C 3.16667,15.5 2.83333,15.5 2.5,15.5C 2.5,15.1667 2.5,14.8333 2.5,14.5C 2.5,13.8333 2.5,13.1667 2.5,12.5 Z"/></g>
<g><path style="opacity:0.984" fill="#174b6c" d="M 3.5,12.5 C 3.83333,12.5 4.16667,12.5 4.5,12.5C 5.16667,13.1667 5.83333,13.8333 6.5,14.5C 5.83333,14.5 5.16667,14.5 4.5,14.5C 3.66175,14.1583 3.32842,13.4916 3.5,12.5 Z"/></g>
<g><path style="opacity:0.988" fill="#1279ac" d="M 4.5,12.5 C 5.5,12.5 6.5,12.5 7.5,12.5C 7.5,13.1667 7.5,13.8333 7.5,14.5C 7.16667,14.5 6.83333,14.5 6.5,14.5C 5.83333,13.8333 5.16667,13.1667 4.5,12.5 Z"/></g>
<g><path style="opacity:0.996" fill="#408e35" d="M 13.5,12.5 C 14.609,12.5569 15.609,12.8902 16.5,13.5C 16.5,13.8333 16.5,14.1667 16.5,14.5C 15.5084,14.3284 14.8417,14.6618 14.5,15.5C 14.5,15.8333 14.5,16.1667 14.5,16.5C 13.8333,16.1667 13.1667,15.8333 12.5,15.5C 12.5,15.1667 12.5,14.8333 12.5,14.5C 12.8333,13.8333 13.1667,13.1667 13.5,12.5 Z"/></g>
<g><path style="opacity:1" fill="#f27914" d="M 18.5,13.5 C 19.1667,13.5 19.5,13.8333 19.5,14.5C 19.5,16.1667 19.5,17.8333 19.5,19.5C 19.1667,19.5 18.8333,19.5 18.5,19.5C 18.5,18.1667 18.5,16.8333 18.5,15.5C 17.4937,14.6043 17.4937,13.9377 18.5,13.5 Z"/></g>
<g><path style="opacity:1" fill="#6c4827" d="M 20.5,11.5 C 21.4916,11.3284 22.1583,11.6618 22.5,12.5C 22.5,13.1667 22.5,13.8333 22.5,14.5C 20.8958,15.287 20.2291,16.6203 20.5,18.5C 20.5,19.1667 20.1667,19.5 19.5,19.5C 19.5,17.8333 19.5,16.1667 19.5,14.5C 20.3382,14.1583 20.6716,13.4916 20.5,12.5C 20.5,12.1667 20.5,11.8333 20.5,11.5 Z"/></g>
<g><path style="opacity:1" fill="#e24b20" d="M 22.5,12.5 C 23.1667,12.5 23.8333,12.5 24.5,12.5C 24.8333,12.5 25.1667,12.5 25.5,12.5C 25.5,12.8333 25.5,13.1667 25.5,13.5C 25.1667,13.5 24.8333,13.5 24.5,13.5C 23.8333,13.8333 23.1667,14.1667 22.5,14.5C 22.5,13.8333 22.5,13.1667 22.5,12.5 Z"/></g>
<g><path style="opacity:0.996" fill="#35322e" d="M 24.5,13.5 C 24.8333,13.5 25.1667,13.5 25.5,13.5C 25.8333,13.5 26.1667,13.5 26.5,13.5C 26.5,14.8333 26.5,16.1667 26.5,17.5C 26.1667,17.5 25.8333,17.5 25.5,17.5C 22.9028,17.2792 22.9028,16.7792 25.5,16C 24.7476,15.3292 24.4142,14.4959 24.5,13.5 Z"/></g>
<g><path style="opacity:0.012" fill="#006200" d="M 35.5,12.5 C 35.5,13.1667 35.5,13.8333 35.5,14.5C 35.1667,14.5 34.8333,14.5 34.5,14.5C 34.3284,13.5084 34.6618,12.8417 35.5,12.5 Z"/></g>
<g><path style="opacity:0.992" fill="#0f6379" d="M 4.5,15.5 C 4.5,15.1667 4.5,14.8333 4.5,14.5C 5.16667,14.5 5.83333,14.5 6.5,14.5C 6.5,15.1667 6.5,15.8333 6.5,16.5C 6.16667,16.5 5.83333,16.5 5.5,16.5C 5.5,15.8333 5.16667,15.5 4.5,15.5 Z"/></g>
<g><path style="opacity:1" fill="#119686" d="M 8.5,13.5 C 8.83333,13.5 9.16667,13.5 9.5,13.5C 9.83333,13.5 10.1667,13.5 10.5,13.5C 11.1667,13.5 11.5,13.8333 11.5,14.5C 8.83333,15.5 8.83333,16.5 11.5,17.5C 11.5,18.1667 11.1667,18.5 10.5,18.5C 8.74395,17.4479 8.07729,15.7812 8.5,13.5 Z"/></g>
<g><path style="opacity:1" fill="#28422e" d="M 14.5,15.5 C 14.8417,14.6618 15.5084,14.3284 16.5,14.5C 16.5,14.8333 16.5,15.1667 16.5,15.5C 16.5,15.8333 16.5,16.1667 16.5,16.5C 15.8333,16.1667 15.1667,15.8333 14.5,15.5 Z"/></g>
<g><path style="opacity:1" fill="#d14428" d="M 24.5,13.5 C 24.4142,14.4959 24.7476,15.3292 25.5,16C 22.9028,16.7792 22.9028,17.2792 25.5,17.5C 25.5,17.8333 25.5,18.1667 25.5,18.5C 24.5,18.5 23.5,18.5 22.5,18.5C 22.5,17.1667 22.5,15.8333 22.5,14.5C 23.1667,14.1667 23.8333,13.8333 24.5,13.5 Z"/></g>
<g><path style="opacity:1" fill="#ef3d31" d="M 26.5,13.5 C 27.1667,14.1667 27.8333,14.8333 28.5,15.5C 28.8333,15.5 29.1667,15.5 29.5,15.5C 28.8333,16.1667 28.1667,16.8333 27.5,17.5C 27.5,18.1667 27.5,18.8333 27.5,19.5C 26.6618,19.1583 26.3284,18.4916 26.5,17.5C 26.5,16.1667 26.5,14.8333 26.5,13.5 Z"/></g>
<g><path style="opacity:1" fill="#33322e" d="M 30.5,14.5 C 29.8333,14.5 29.5,14.8333 29.5,15.5C 29.1667,15.5 28.8333,15.5 28.5,15.5C 28.7107,13.5759 29.3774,13.2426 30.5,14.5 Z"/></g>
<g><path style="opacity:1" fill="#735225" d="M 16.5,16.5 C 16.5,16.1667 16.5,15.8333 16.5,15.5C 17.1667,15.5 17.8333,15.5 18.5,15.5C 18.5,16.8333 18.5,18.1667 18.5,19.5C 18.5,20.1667 18.1667,20.5 17.5,20.5C 17.5,20.1667 17.5,19.8333 17.5,19.5C 17.7373,18.209 17.404,17.209 16.5,16.5 Z"/></g>
<g><path style="opacity:0.996" fill="#c33b30" d="M 30.5,14.5 C 30.5,14.8333 30.5,15.1667 30.5,15.5C 30.3284,16.4916 30.6618,17.1583 31.5,17.5C 31.5,17.8333 31.5,18.1667 31.5,18.5C 30.8333,18.5 30.5,18.8333 30.5,19.5C 30.1667,19.5 29.8333,19.5 29.5,19.5C 29.5,19.1667 29.5,18.8333 29.5,18.5C 29.1583,17.6618 28.4916,17.3284 27.5,17.5C 28.1667,16.8333 28.8333,16.1667 29.5,15.5C 29.5,14.8333 29.8333,14.5 30.5,14.5 Z"/></g>
<g><path style="opacity:0.004" fill="#542f1f" d="M 32.5,12.5 C 33.1667,13.1667 33.8333,13.8333 34.5,14.5C 34.4431,15.609 34.1098,16.609 33.5,17.5C 33.1667,17.5 32.8333,17.5 32.5,17.5C 32.5,17.1667 32.5,16.8333 32.5,16.5C 32.5,16.1667 32.5,15.8333 32.5,15.5C 32.5,14.5 32.5,13.5 32.5,12.5 Z"/></g>
<g><path style="opacity:0.016" fill="#1f3d59" d="M 2.5,12.5 C 2.5,13.1667 2.5,13.8333 2.5,14.5C 1.83333,14.5 1.5,14.8333 1.5,15.5C 1.5,15.8333 1.5,16.1667 1.5,16.5C 0.596028,17.209 0.262695,18.209 0.5,19.5C 0.166667,19.5 -0.166667,19.5 -0.5,19.5C -0.5,18.1667 -0.5,16.8333 -0.5,15.5C 0.26791,14.7375 0.76791,13.7375 1,12.5C 1.68999,11.2617 2.18999,11.2617 2.5,12.5 Z"/></g>
<g><path style="opacity:0.475" fill="#213135" d="M 1.5,15.5 C 1.83333,15.5 2.16667,15.5 2.5,15.5C 2.83333,15.5 3.16667,15.5 3.5,15.5C 2.76589,16.7079 2.43255,18.0413 2.5,19.5C 2.16667,19.5 1.83333,19.5 1.5,19.5C 1.5,18.5 1.5,17.5 1.5,16.5C 1.5,16.1667 1.5,15.8333 1.5,15.5 Z"/></g>
<g><path style="opacity:0.984" fill="#0d7ea3" d="M 3.5,15.5 C 3.83333,15.5 4.16667,15.5 4.5,15.5C 5.16667,15.5 5.5,15.8333 5.5,16.5C 3.06732,17.5477 3.06732,18.2144 5.5,18.5C 5.5,19.1667 5.16667,19.5 4.5,19.5C 3.83333,19.5 3.16667,19.5 2.5,19.5C 2.43255,18.0413 2.76589,16.7079 3.5,15.5 Z"/></g>
<g><path style="opacity:1" fill="#1b6b4f" d="M 11.5,14.5 C 11.8333,14.5 12.1667,14.5 12.5,14.5C 12.5,14.8333 12.5,15.1667 12.5,15.5C 12.5,16.1667 12.5,16.8333 12.5,17.5C 12.1667,17.5 11.8333,17.5 11.5,17.5C 8.83333,16.5 8.83333,15.5 11.5,14.5 Z"/></g>
<g><path style="opacity:1" fill="#364c2a" d="M 12.5,15.5 C 13.1667,15.8333 13.8333,16.1667 14.5,16.5C 14.1583,17.3382 13.4916,17.6716 12.5,17.5C 12.5,16.8333 12.5,16.1667 12.5,15.5 Z"/></g>
<g><path style="opacity:0.427" fill="#242e2e" d="M 30.5,15.5 C 31.1667,15.5 31.8333,15.5 32.5,15.5C 32.5,15.8333 32.5,16.1667 32.5,16.5C 31.8333,16.5 31.5,16.8333 31.5,17.5C 30.6618,17.1583 30.3284,16.4916 30.5,15.5 Z"/></g>
<g><path style="opacity:0.992" fill="#15535c" d="M 5.5,16.5 C 5.83333,16.5 6.16667,16.5 6.5,16.5C 6.16667,17.1667 5.83333,17.8333 5.5,18.5C 3.06732,18.2144 3.06732,17.5477 5.5,16.5 Z"/></g>
<g><path style="opacity:0.996" fill="#0c8f96" d="M 6.5,14.5 C 6.83333,14.5 7.16667,14.5 7.5,14.5C 7.5,16.1667 7.5,17.8333 7.5,19.5C 7.16667,19.5 6.83333,19.5 6.5,19.5C 6.5,18.8333 6.16667,18.5 5.5,18.5C 5.83333,17.8333 6.16667,17.1667 6.5,16.5C 6.5,15.8333 6.5,15.1667 6.5,14.5 Z"/></g>
<g><path style="opacity:1" fill="#a94723" d="M 22.5,14.5 C 22.5,15.8333 22.5,17.1667 22.5,18.5C 22.1667,18.5 21.8333,18.5 21.5,18.5C 21.1667,18.5 20.8333,18.5 20.5,18.5C 20.2291,16.6203 20.8958,15.287 22.5,14.5 Z"/></g>
<g><path style="opacity:1" fill="#13605d" d="M 7.5,11.5 C 8.33825,11.8417 8.67158,12.5084 8.5,13.5C 8.07729,15.7812 8.74395,17.4479 10.5,18.5C 9.79105,19.404 8.79105,19.7373 7.5,19.5C 7.5,17.8333 7.5,16.1667 7.5,14.5C 7.5,13.8333 7.5,13.1667 7.5,12.5C 7.5,12.1667 7.5,11.8333 7.5,11.5 Z"/></g>
<g><path style="opacity:1" fill="#a98718" d="M 14.5,15.5 C 15.1667,15.8333 15.8333,16.1667 16.5,16.5C 16.4431,17.609 16.1098,18.609 15.5,19.5C 14.391,19.4431 13.391,19.1098 12.5,18.5C 12.5,18.1667 12.5,17.8333 12.5,17.5C 13.4916,17.6716 14.1583,17.3382 14.5,16.5C 14.5,16.1667 14.5,15.8333 14.5,15.5 Z"/></g>
<g><path style="opacity:1" fill="#936820" d="M 16.5,16.5 C 17.404,17.209 17.7373,18.209 17.5,19.5C 16.8333,19.5 16.1667,19.5 15.5,19.5C 16.1098,18.609 16.4431,17.609 16.5,16.5 Z"/></g>
<g><path style="opacity:0.878" fill="#5e3430" d="M 27.5,17.5 C 28.4916,17.3284 29.1583,17.6618 29.5,18.5C 28.8333,18.8333 28.1667,19.1667 27.5,19.5C 27.5,18.8333 27.5,18.1667 27.5,17.5 Z"/></g>
<g><path style="opacity:0.998" fill="#e93d37" d="M 31.5,18.5 C 32.5063,19.3957 32.5063,20.0623 31.5,20.5C 30.8333,20.5 30.5,20.1667 30.5,19.5C 30.5,18.8333 30.8333,18.5 31.5,18.5 Z"/></g>
<g><path style="opacity:0.004" fill="#000000" d="M 0.5,19.5 C 0.833333,19.5 1.16667,19.5 1.5,19.5C 1.31468,20.1701 0.981346,20.1701 0.5,19.5 Z"/></g>
<g><path style="opacity:0.537" fill="#1e6f70" d="M 2.5,19.5 C 3.16667,19.5 3.83333,19.5 4.5,19.5C 4.5,19.8333 4.5,20.1667 4.5,20.5C 4.5,20.8333 4.5,21.1667 4.5,21.5C 4.16667,21.5 3.83333,21.5 3.5,21.5C 3.16667,20.8333 2.83333,20.1667 2.5,19.5 Z"/></g>
<g><path style="opacity:0.533" fill="#183b39" d="M 5.5,18.5 C 6.16667,18.5 6.5,18.8333 6.5,19.5C 6.5,20.1667 6.5,20.8333 6.5,21.5C 6.16667,21.5 5.83333,21.5 5.5,21.5C 5.5,20.8333 5.16667,20.5 4.5,20.5C 4.5,20.1667 4.5,19.8333 4.5,19.5C 5.16667,19.5 5.5,19.1667 5.5,18.5 Z"/></g>
<g><path style="opacity:1" fill="#173533" d="M 11.5,17.5 C 11.8333,17.5 12.1667,17.5 12.5,17.5C 12.5,17.8333 12.5,18.1667 12.5,18.5C 12.5,18.8333 12.5,19.1667 12.5,19.5C 11.8333,19.8333 11.1667,20.1667 10.5,20.5C 9.20895,20.7373 8.20895,20.404 7.5,19.5C 8.79105,19.7373 9.79105,19.404 10.5,18.5C 11.1667,18.5 11.5,18.1667 11.5,17.5 Z"/></g>
<g><path style="opacity:0.998" fill="#1c533f" d="M 12.5,19.5 C 12.5,20.1667 12.5,20.8333 12.5,21.5C 12.5,22.1667 12.5,22.8333 12.5,23.5C 12.1667,23.5 11.8333,23.5 11.5,23.5C 11.6716,22.5084 11.3382,21.8417 10.5,21.5C 10.5,21.1667 10.5,20.8333 10.5,20.5C 11.1667,20.1667 11.8333,19.8333 12.5,19.5 Z"/></g>
<g><path style="opacity:1" fill="#1f3830" d="M 12.5,18.5 C 13.391,19.1098 14.391,19.4431 15.5,19.5C 14.8333,20.1667 14.1667,20.8333 13.5,21.5C 13.1667,21.5 12.8333,21.5 12.5,21.5C 12.5,20.8333 12.5,20.1667 12.5,19.5C 12.5,19.1667 12.5,18.8333 12.5,18.5 Z"/></g>
<g><path style="opacity:1" fill="#894326" d="M 18.5,19.5 C 18.8333,19.5 19.1667,19.5 19.5,19.5C 19.5,19.8333 19.5,20.1667 19.5,20.5C 19.5,20.8333 19.5,21.1667 19.5,21.5C 19.1667,21.5 18.8333,21.5 18.5,21.5C 18.1667,21.5 17.8333,21.5 17.5,21.5C 17.5,21.1667 17.5,20.8333 17.5,20.5C 18.1667,20.5 18.5,20.1667 18.5,19.5 Z"/></g>
<g><path style="opacity:1" fill="#953f29" d="M 20.5,18.5 C 20.8333,18.5 21.1667,18.5 21.5,18.5C 22.6602,20.2027 21.9935,20.8693 19.5,20.5C 19.5,20.1667 19.5,19.8333 19.5,19.5C 20.1667,19.5 20.5,19.1667 20.5,18.5 Z"/></g>
<g><path style="opacity:0.98" fill="#753735" d="M 25.5,17.5 C 25.8333,17.5 26.1667,17.5 26.5,17.5C 26.3284,18.4916 26.6618,19.1583 27.5,19.5C 27.5,20.1667 27.5,20.8333 27.5,21.5C 27.5,21.8333 27.5,22.1667 27.5,22.5C 26.8333,21.8333 26.1667,21.1667 25.5,20.5C 24.4937,20.0623 24.4937,19.3957 25.5,18.5C 25.5,18.1667 25.5,17.8333 25.5,17.5 Z"/></g>
<g><path style="opacity:0.02" fill="#26302e" d="M 29.5,18.5 C 29.5,18.8333 29.5,19.1667 29.5,19.5C 29.5,19.8333 29.5,20.1667 29.5,20.5C 28.8333,20.5 28.5,20.8333 28.5,21.5C 28.1667,21.5 27.8333,21.5 27.5,21.5C 27.5,20.8333 27.5,20.1667 27.5,19.5C 28.1667,19.1667 28.8333,18.8333 29.5,18.5 Z"/></g>
<g><path style="opacity:0.396" fill="#3e3327" d="M 31.5,17.5 C 31.8333,17.5 32.1667,17.5 32.5,17.5C 32.8333,18.8333 33.1667,18.8333 33.5,17.5C 34.1667,17.8333 34.8333,18.1667 35.5,18.5C 35.5,19.1667 35.5,19.8333 35.5,20.5C 34.2921,21.2341 32.9587,21.5674 31.5,21.5C 31.5,21.1667 31.5,20.8333 31.5,20.5C 32.5063,20.0623 32.5063,19.3957 31.5,18.5C 31.5,18.1667 31.5,17.8333 31.5,17.5 Z"/></g>
<g><path style="opacity:0.529" fill="#1a4d49" d="M 6.5,19.5 C 6.83333,19.5 7.16667,19.5 7.5,19.5C 8.20895,20.404 9.20895,20.7373 10.5,20.5C 10.5,20.8333 10.5,21.1667 10.5,21.5C 9.83333,22.1667 9.16667,22.8333 8.5,23.5C 7.83333,23.5 7.16667,23.5 6.5,23.5C 6.5,22.8333 6.5,22.1667 6.5,21.5C 6.5,20.8333 6.5,20.1667 6.5,19.5 Z"/></g>
<g><path style="opacity:0.984" fill="#977020" d="M 15.5,19.5 C 16.1667,19.5 16.8333,19.5 17.5,19.5C 17.5,19.8333 17.5,20.1667 17.5,20.5C 16.5,20.8333 15.8333,21.5 15.5,22.5C 15.1667,22.5 14.8333,22.5 14.5,22.5C 13.8333,22.5 13.5,22.1667 13.5,21.5C 14.1667,20.8333 14.8333,20.1667 15.5,19.5 Z"/></g>
<g><path style="opacity:0.984" fill="#863c34" d="M 21.5,18.5 C 21.8333,18.5 22.1667,18.5 22.5,18.5C 23.5,18.5 24.5,18.5 25.5,18.5C 24.4937,19.3957 24.4937,20.0623 25.5,20.5C 25.5,20.8333 25.5,21.1667 25.5,21.5C 24.1667,21.5 23.5,22.1667 23.5,23.5C 23.5,24.1667 23.8333,24.5 24.5,24.5C 24.5,24.8333 24.5,25.1667 24.5,25.5C 24.5,25.8333 24.5,26.1667 24.5,26.5C 24.1667,26.5 23.8333,26.5 23.5,26.5C 23.5,25.8333 23.1667,25.5 22.5,25.5C 22.5,24.8333 22.5,24.1667 22.5,23.5C 22.5,22.1667 21.8333,21.5 20.5,21.5C 20.1667,21.5 19.8333,21.5 19.5,21.5C 19.5,21.1667 19.5,20.8333 19.5,20.5C 21.9935,20.8693 22.6602,20.2027 21.5,18.5 Z"/></g>
<g><path style="opacity:0.196" fill="#753432" d="M 29.5,19.5 C 29.8333,19.5 30.1667,19.5 30.5,19.5C 30.5,20.1667 30.8333,20.5 31.5,20.5C 31.5,20.8333 31.5,21.1667 31.5,21.5C 31.1667,21.5 30.8333,21.5 30.5,21.5C 30.1667,21.5 29.8333,21.5 29.5,21.5C 29.5,21.1667 29.5,20.8333 29.5,20.5C 29.5,20.1667 29.5,19.8333 29.5,19.5 Z"/></g>
<g><path style="opacity:0.716" fill="#43652b" d="M 12.5,21.5 C 12.8333,21.5 13.1667,21.5 13.5,21.5C 13.5,22.1667 13.8333,22.5 14.5,22.5C 14.5,23.1667 14.1667,23.5 13.5,23.5C 13.1667,23.5 12.8333,23.5 12.5,23.5C 12.5,22.8333 12.5,22.1667 12.5,21.5 Z"/></g>
<g><path style="opacity:0.988" fill="#8c4626" d="M 18.5,21.5 C 18.8333,21.5 19.1667,21.5 19.5,21.5C 19.8333,21.5 20.1667,21.5 20.5,21.5C 20.5,22.1667 20.5,22.8333 20.5,23.5C 19.8333,24.1667 19.1667,24.8333 18.5,25.5C 18.5,24.8333 18.5,24.1667 18.5,23.5C 18.5,22.8333 18.5,22.1667 18.5,21.5 Z"/></g>
<g><path style="opacity:0.067" fill="#fc4a47" d="M 27.5,21.5 C 27.8333,21.5 28.1667,21.5 28.5,21.5C 28.8333,21.5 29.1667,21.5 29.5,21.5C 29.8333,21.5 30.1667,21.5 30.5,21.5C 30.1667,22.1667 29.8333,22.8333 29.5,23.5C 29.1667,23.5 28.8333,23.5 28.5,23.5C 28.1667,23.5 27.8333,23.5 27.5,23.5C 27.5,23.1667 27.5,22.8333 27.5,22.5C 27.5,22.1667 27.5,21.8333 27.5,21.5 Z"/></g>
<g><path style="opacity:0.008" fill="#134c4b" d="M 3.5,21.5 C 3.83333,21.5 4.16667,21.5 4.5,21.5C 4.5,22.1667 4.5,22.8333 4.5,23.5C 3.73209,24.2625 3.23209,25.2625 3,26.5C 2.22039,24.6131 2.38705,22.9464 3.5,21.5 Z"/></g>
<g><path style="opacity:0.39" fill="#1699af" d="M 4.5,21.5 C 4.83333,21.5 5.16667,21.5 5.5,21.5C 5.83333,21.5 6.16667,21.5 6.5,21.5C 6.5,22.1667 6.5,22.8333 6.5,23.5C 6.5,23.8333 6.5,24.1667 6.5,24.5C 6.5,24.8333 6.5,25.1667 6.5,25.5C 6.44001,26.0431 6.10667,26.3764 5.5,26.5C 4.61432,25.675 4.28099,24.675 4.5,23.5C 4.5,22.8333 4.5,22.1667 4.5,21.5 Z"/></g>
<g><path style="opacity:0.678" fill="#1c8068" d="M 10.5,21.5 C 11.3382,21.8417 11.6716,22.5084 11.5,23.5C 10.5,24.8333 9.5,24.8333 8.5,23.5C 9.16667,22.8333 9.83333,22.1667 10.5,21.5 Z"/></g>
<g><path style="opacity:0.447" fill="#37402d" d="M 17.5,20.5 C 17.5,20.8333 17.5,21.1667 17.5,21.5C 16.8902,22.391 16.5569,23.391 16.5,24.5C 16.1667,24.5 15.8333,24.5 15.5,24.5C 15.5,23.8333 15.5,23.1667 15.5,22.5C 15.8333,21.5 16.5,20.8333 17.5,20.5 Z"/></g>
<g><path style="opacity:1" fill="#b05f20" d="M 17.5,21.5 C 17.8333,21.5 18.1667,21.5 18.5,21.5C 18.5,22.1667 18.5,22.8333 18.5,23.5C 17.8333,23.8333 17.1667,24.1667 16.5,24.5C 16.5569,23.391 16.8902,22.391 17.5,21.5 Z"/></g>
<g><path style="opacity:0.863" fill="#393531" d="M 20.5,21.5 C 21.8333,21.5 22.5,22.1667 22.5,23.5C 21.8333,23.5 21.1667,23.5 20.5,23.5C 20.5,22.8333 20.5,22.1667 20.5,21.5 Z"/></g>
<g><path style="opacity:0.145" fill="#30312c" d="M 25.5,21.5 C 25.1667,22.1667 24.8333,22.8333 24.5,23.5C 24.1667,23.5 23.8333,23.5 23.5,23.5C 23.5,22.1667 24.1667,21.5 25.5,21.5 Z"/></g>
<g><path style="opacity:0.382" fill="#e34647" d="M 25.5,20.5 C 26.1667,21.1667 26.8333,21.8333 27.5,22.5C 27.5,22.8333 27.5,23.1667 27.5,23.5C 27.5,24.1667 27.5,24.8333 27.5,25.5C 26.8333,25.5 26.1667,25.5 25.5,25.5C 25.5,24.8333 25.1667,24.5 24.5,24.5C 24.5,24.1667 24.5,23.8333 24.5,23.5C 24.8333,22.8333 25.1667,22.1667 25.5,21.5C 25.5,21.1667 25.5,20.8333 25.5,20.5 Z"/></g>
<g><path style="opacity:0.353" fill="#c94341" d="M 30.5,21.5 C 30.8333,21.5 31.1667,21.5 31.5,21.5C 34.0489,22.8313 33.7155,23.8313 30.5,24.5C 30.5,23.8333 30.1667,23.5 29.5,23.5C 29.8333,22.8333 30.1667,22.1667 30.5,21.5 Z"/></g>
<g><path style="opacity:0.58" fill="#6d5825" d="M 14.5,22.5 C 14.8333,22.5 15.1667,22.5 15.5,22.5C 15.5,23.1667 15.5,23.8333 15.5,24.5C 15.5,25.1667 15.5,25.8333 15.5,26.5C 15.1667,26.5 14.8333,26.5 14.5,26.5C 14.6716,25.5084 14.3382,24.8417 13.5,24.5C 13.5,24.1667 13.5,23.8333 13.5,23.5C 14.1667,23.5 14.5,23.1667 14.5,22.5 Z"/></g>
<g><path style="opacity:0.012" fill="#d44f4b" d="M 28.5,23.5 C 28.8333,23.5 29.1667,23.5 29.5,23.5C 30.1667,23.5 30.5,23.8333 30.5,24.5C 29.0335,27.2583 28.3668,26.925 28.5,23.5 Z"/></g>
<g><path style="opacity:0.008" fill="#125e5d" d="M 6.5,25.5 C 6.5,25.1667 6.5,24.8333 6.5,24.5C 7.16667,24.5 7.83333,24.5 8.5,24.5C 8.5,24.8333 8.5,25.1667 8.5,25.5C 8.06233,26.5063 7.39567,26.5063 6.5,25.5 Z"/></g>
<g><path style="opacity:1" fill="#825327" d="M 18.5,23.5 C 18.5,24.1667 18.5,24.8333 18.5,25.5C 18.1667,25.5 17.8333,25.5 17.5,25.5C 16.8333,25.8333 16.1667,26.1667 15.5,26.5C 15.5,25.8333 15.5,25.1667 15.5,24.5C 15.8333,24.5 16.1667,24.5 16.5,24.5C 17.1667,24.1667 17.8333,23.8333 18.5,23.5 Z"/></g>
<g><path style="opacity:0.957" fill="#a7402d" d="M 20.5,23.5 C 21.1667,23.5 21.8333,23.5 22.5,23.5C 22.5,24.1667 22.5,24.8333 22.5,25.5C 21.1667,25.5 20.5,24.8333 20.5,23.5 Z"/></g>
<g><path style="opacity:0.765" fill="#20443b" d="M 8.5,23.5 C 9.5,24.8333 10.5,24.8333 11.5,23.5C 11.5,23.8333 11.5,24.1667 11.5,24.5C 11.5,25.5 11.5,26.5 11.5,27.5C 10.2223,27.2178 9.22235,26.5511 8.5,25.5C 8.5,25.1667 8.5,24.8333 8.5,24.5C 8.5,24.1667 8.5,23.8333 8.5,23.5 Z"/></g>
<g><path style="opacity:0.392" fill="#bf9126" d="M 11.5,24.5 C 12.1667,24.5 12.8333,24.5 13.5,24.5C 14.3382,24.8417 14.6716,25.5084 14.5,26.5C 14.1667,26.5 13.8333,26.5 13.5,26.5C 12.7321,27.2625 12.2321,28.2625 12,29.5C 11.5357,28.9056 11.369,28.2389 11.5,27.5C 11.5,26.5 11.5,25.5 11.5,24.5 Z"/></g>
<g><path style="opacity:0.71" fill="#3d342c" d="M 20.5,23.5 C 20.5,24.8333 21.1667,25.5 22.5,25.5C 22.5,25.8333 22.5,26.1667 22.5,26.5C 21.5084,26.3284 20.8417,26.6618 20.5,27.5C 19.8333,27.5 19.1667,27.5 18.5,27.5C 18.5,26.8333 18.5,26.1667 18.5,25.5C 19.1667,24.8333 19.8333,24.1667 20.5,23.5 Z"/></g>
<g><path style="opacity:0.004" fill="#fe0000" d="M 30.5,25.5 C 31.8333,26.1667 31.8333,26.1667 30.5,25.5 Z"/></g>
<g><path style="opacity:0.592" fill="#40382c" d="M 17.5,25.5 C 17.6716,26.4916 17.3382,27.1583 16.5,27.5C 16.1667,27.5 15.8333,27.5 15.5,27.5C 15.5,27.1667 15.5,26.8333 15.5,26.5C 16.1667,26.1667 16.8333,25.8333 17.5,25.5 Z"/></g>
<g><path style="opacity:0.012" fill="#005500" d="M 22.5,26.5 C 22.8333,26.5 23.1667,26.5 23.5,26.5C 23.3147,27.1701 22.9813,27.1701 22.5,26.5 Z"/></g>
<g><path style="opacity:0.035" fill="#ee3e3c" d="M 24.5,26.5 C 24.5,26.1667 24.5,25.8333 24.5,25.5C 24.8333,25.5 25.1667,25.5 25.5,25.5C 26.1667,25.5 26.8333,25.5 27.5,25.5C 27.1959,27.7957 26.1959,28.129 24.5,26.5 Z"/></g>
<g><path style="opacity:0.008" fill="#007f7e" d="M 4.5,27.5 C 5.83333,28.1667 5.83333,28.1667 4.5,27.5 Z"/></g>
<g><path style="opacity:0.269" fill="#f4af21" d="M 13.5,26.5 C 13.8333,26.5 14.1667,26.5 14.5,26.5C 14.8333,26.5 15.1667,26.5 15.5,26.5C 15.5,26.8333 15.5,27.1667 15.5,27.5C 15.5,27.8333 15.5,28.1667 15.5,28.5C 14.8333,28.5 14.1667,28.5 13.5,28.5C 13.5,27.8333 13.5,27.1667 13.5,26.5 Z"/></g>
<g><path style="opacity:0.459" fill="#b56c1e" d="M 17.5,25.5 C 17.8333,25.5 18.1667,25.5 18.5,25.5C 18.5,26.1667 18.5,26.8333 18.5,27.5C 18.8417,28.3382 19.5084,28.6716 20.5,28.5C 18.1667,29.8333 15.8333,29.8333 13.5,28.5C 14.1667,28.5 14.8333,28.5 15.5,28.5C 16.1667,28.5 16.5,28.1667 16.5,27.5C 17.3382,27.1583 17.6716,26.4916 17.5,25.5 Z"/></g>
<g><path style="opacity:0.008" fill="#4f4e17" d="M 20.5,28.5 C 20.5,28.1667 20.5,27.8333 20.5,27.5C 21.1667,27.5 21.8333,27.5 22.5,27.5C 22.1583,28.3382 21.4916,28.6716 20.5,28.5 Z"/></g>
<g><path style="opacity:0.008" fill="#000000" d="M 9.5,28.5 C 10.8333,29.1667 10.8333,29.1667 9.5,28.5 Z"/></g>
<g><path style="opacity:0.004" fill="#000000" d="M 25.5,28.5 C 26.8333,29.1667 26.8333,29.1667 25.5,28.5 Z"/></g>
<g><path style="opacity:0.004" fill="#ffd6fe" d="M 13.5,31.5 C 14.1667,30.1667 14.8333,30.1667 15.5,31.5C 14.8333,31.5 14.1667,31.5 13.5,31.5 Z"/></g>
<g><path style="opacity:0.004" fill="#feff00" d="M 18.5,31.5 C 17.8333,30.1667 17.8333,30.1667 18.5,31.5 Z"/></g>
</svg>
